<svg id="Capa_1" data-name="Capa 1" xmlns="http://www.w3.org/2000/svg" viewBox="0 0 64 64"><defs><style>.cls-1{fill:#fff;}.cls-2{fill:none;stroke:#fff;stroke-miterlimit:10;stroke-dasharray:5;}</style></defs><path class="cls-1" d="M32.87,47.09v-.23a.56.56,0,0,1,.2-.28.81.81,0,0,1,.34-.08l7.87,0s.06,0,.08,0a.47.47,0,0,1,.37.17.49.49,0,0,1,0,.56l-3.42,6.19c-.18.31-.35.62-.52.93a.45.45,0,0,1-.52.23.54.54,0,0,1-.33-.28l-3.54-6.19C33.23,47.74,33,47.42,32.87,47.09Z" transform="translate(-5.87 -5.5)"/><circle class="cls-2" cx="32" cy="32" r="31.5"/><line class="cls-2" x1="31.5" y1="13.5" x2="31.5" y2="46"/></svg>