<svg id="Capa_1" data-name="Capa 1" xmlns="http://www.w3.org/2000/svg" viewBox="0 0 176 32.14"><defs><style>.cls-1{fill:#f4f4f4;}</style></defs><polygon class="cls-1" points="112.34 20.97 107.73 20.97 107.73 18.18 120.27 18.18 120.27 20.97 115.66 20.97 115.66 31.94 112.34 31.94 112.34 20.97"/><path class="cls-1" d="M126.06,18.1h3.07L135.61,32h-3.48l-1.38-3.09H124.4L123,32h-3.4Zm3.5,8.1-2-4.46-2,4.46Z" transform="translate(0 0.01)"/><polygon class="cls-1" points="137.94 18.18 141.01 18.18 148.09 26.65 148.09 18.18 151.38 18.18 151.38 31.94 148.55 31.94 141.22 23.19 141.22 31.94 137.94 31.94 137.94 18.18"/><polygon class="cls-1" points="155 18.18 158.33 18.18 158.33 24.2 164.47 18.18 168.49 18.18 162.33 24.02 168.77 31.94 164.77 31.94 160.08 26.08 158.33 27.74 158.33 31.94 155 31.94 155 18.18"/><path class="cls-1" d="M169.75,29.3h0a3.14,3.14,0,0,1,6.25,0h0a3.14,3.14,0,0,1-6.25,0m5.89,0h0a2.78,2.78,0,0,0-5.53,0h0a2.59,2.59,0,0,0,2.68,2.51h.07a2.64,2.64,0,0,0,2.78-2.49v0m-4-1.6h1.47a1.51,1.51,0,0,1,1,.33.91.91,0,0,1,.28.66h0a1,1,0,0,1-.72.93l.81,1.09h-.85l-.71-1h-.58v1h-.73Zm1.46,1.48c.38,0,.57-.18.57-.43h0c0-.29-.22-.44-.58-.44h-.72v.89Z" transform="translate(0 0.01)"/><path class="cls-1" d="M167.91,13.61a10.08,10.08,0,0,1-8.36,0,12,12,0,0,0-10.32,0,10.08,10.08,0,0,1-8.36,0,12,12,0,0,0-10.32,0,10.08,10.08,0,0,1-8.36,0,12,12,0,0,0-10.32,0,10.08,10.08,0,0,1-8.36,0l-.35-.19-1.08,1.47.45.24a12,12,0,0,0,10.32,0,10,10,0,0,1,8.36,0,12,12,0,0,0,10.32,0,10,10,0,0,1,8.36,0,12,12,0,0,0,10.32,0,10,10,0,0,1,8.36,0,12,12,0,0,0,10.32,0,10.14,10.14,0,0,1,7.11-.5V12.79a12.08,12.08,0,0,0-8.09.82" transform="translate(0 0.01)"/><path class="cls-1" d="M167.91,9.46a10.08,10.08,0,0,1-8.36,0,12,12,0,0,0-10.32,0,10.08,10.08,0,0,1-8.36,0,12,12,0,0,0-10.32,0,10.08,10.08,0,0,1-8.36,0,12,12,0,0,0-10.32,0,10.11,10.11,0,0,1-6.3.7l-1.17,1.55a12.18,12.18,0,0,0,8.42-.73,10.08,10.08,0,0,1,8.36,0,12,12,0,0,0,10.32,0,10.08,10.08,0,0,1,8.36,0,12,12,0,0,0,10.32,0,10.08,10.08,0,0,1,8.36,0,12,12,0,0,0,10.32,0,10.2,10.2,0,0,1,7.11-.5V8.64a12.2,12.2,0,0,0-8.09.82" transform="translate(0 0.01)"/><path class="cls-1" d="M167.91,5.31a10.08,10.08,0,0,1-8.36,0,12,12,0,0,0-10.32,0,10.08,10.08,0,0,1-8.36,0,12,12,0,0,0-10.32,0,10.08,10.08,0,0,1-8.36,0,12,12,0,0,0-10.32,0,8.71,8.71,0,0,1-3.36.87L107.19,8a11.55,11.55,0,0,0,5.66-1.15,10.08,10.08,0,0,1,8.36,0,12,12,0,0,0,10.32,0,10.08,10.08,0,0,1,8.36,0,12,12,0,0,0,10.32,0,10.08,10.08,0,0,1,8.36,0,12,12,0,0,0,10.32,0,10.2,10.2,0,0,1,7.11-.5V4.49a12.2,12.2,0,0,0-8.09.82" transform="translate(0 0.01)"/><path class="cls-1" d="M167.91,1.16a10.08,10.08,0,0,1-8.36,0,12,12,0,0,0-10.32,0,10.08,10.08,0,0,1-8.36,0,12,12,0,0,0-10.32,0,10.08,10.08,0,0,1-8.36,0A12.18,12.18,0,0,0,112.4.89l-2,2.65a9.54,9.54,0,0,0,2.38-.86,10.08,10.08,0,0,1,8.36,0,12,12,0,0,0,10.32,0,10.08,10.08,0,0,1,8.36,0,12,12,0,0,0,10.32,0,10.08,10.08,0,0,1,8.36,0,12,12,0,0,0,10.32,0,10.2,10.2,0,0,1,7.11-.5V.34a12.2,12.2,0,0,0-8.09.82" transform="translate(0 0.01)"/><polygon class="cls-1" points="0 1.28 9.93 1.28 18.03 13.23 26.12 1.28 36.05 1.28 36.05 32.14 26.7 32.14 26.7 14.42 18.03 26.5 17.83 26.5 9.21 14.51 9.21 32.14 0 32.14 0 1.28"/><path class="cls-1" d="M45.55,1.1h9.06l14.44,31H59L56.5,26.6H43.4L41,32.1H31.11ZM53.79,20,50,11.24,46.18,20Z" transform="translate(0 0.01)"/><polygon class="cls-1" points="70.56 16.45 59.41 1.28 70.22 1.28 76.23 9.97 82.29 1.28 92.85 1.28 81.71 16.36 93.34 32.14 82.53 32.14 76.04 22.84 69.49 32.14 58.93 32.14 70.56 16.45"/><polygon class="cls-1" points="96.73 16.36 107.96 1.28 97.75 1.28 86.52 16.36 98.24 32.14 108.45 32.14 96.73 16.36"/></svg>